<svg width="21" height="20" viewBox="0 0 21 20" fill="none" xmlns="http://www.w3.org/2000/svg"><path d="M6 15.5a2 2 0 1 0-4 0 2 2 0 0 0 4 0v0Zm9 0a2 2 0 1 0-4 0 2 2 0 0 0 4 0v0Z" stroke="#464646" stroke-width="1.6" stroke-linecap="round" stroke-linejoin="round"/><path d="M12 4.5H2.387a1 1 0 0 0-.948 1.316l1.333 4a1 1 0 0 0 .949.684H13l2.757-7.351a1 1 0 0 1 .936-.649H20" stroke="#464646" stroke-width="1.6"/><path d="M4 13.5h8l3.76-10.342a1 1 0 0 1 .94-.658H20" stroke="#464646" stroke-width="1.6"/></svg>